<?xml version="1.0" encoding="utf-8"?>
<!-- Generator: Adobe Illustrator 25.2.1, SVG Export Plug-In . SVG Version: 6.00 Build 0)  -->
<svg version="1.1" id="Layer_1" xmlns="http://www.w3.org/2000/svg" xmlns:xlink="http://www.w3.org/1999/xlink" x="0px" y="0px"
	 viewBox="0 0 218.3 28.3" style="enable-background:new 0 0 218.3 28.3;" xml:space="preserve">
<style type="text/css">
	.st0{fill:#FFFFFF;fill-opacity:0;}
	.st1{fill:none;stroke:#FAB80E;stroke-miterlimit:10;}
	.st2{fill:#FAB80E;}
</style>
<rect y="0" class="st0" width="218.3" height="28.3"/>
<line class="st1" x1="109.1" y1="0" x2="109.1" y2="28.3"/>
<g>
	<g>
		<path class="st2" d="M5.9,5.8c0,0.4-0.1,0.9-0.2,1.6c0,0.1,0,0.2,0,0.3l-0.6,3.8H2.6L0.2,0.3h2.9l0.6,5c0.1,0.4,0.1,0.8,0.1,1.2
			c0,0.4,0,0.7,0.1,1H4c0-0.4,0.1-1,0.2-1.8c0-0.1,0-0.1,0-0.2L5,0.3h2.1l0.8,5.3c0,0,0,0.1,0,0.2C7.9,6.4,8,7,8,7.4h0.1
			c0-0.3,0-0.7,0.1-1c-0.1-0.3,0-0.7,0-1.2l0.6-5h2.9L9.4,11.5H6.9L6.3,7.7c0-0.1,0-0.2,0-0.3C6.1,6.7,6.1,6.2,5.9,5.8L5.9,5.8z"/>
		<path class="st2" d="M12.3,11.5V0.3h3v11.3h-3V11.5z"/>
		<path class="st2" d="M16.9,11.5V0.3h2.9v4.8l1.8-4.8h3.3l-2.4,5.5l2.8,5.7h-3.5l-2-4.7v4.7H16.9z"/>
		<path class="st2" d="M25.6,11.5V0.3h3v11.3h-3V11.5z"/>
		<path class="st2" d="M41.4,11.5L41,7c0-0.3,0-0.7-0.1-1c0-0.3,0-0.7-0.1-1c0,0.3-0.1,0.7-0.1,1c-0.1,0.4-0.1,0.7-0.2,1.2l-0.9,4.3
			h-1.7L37,7.2c-0.1-0.4-0.2-0.8-0.2-1.2c-0.1-0.4-0.1-0.7-0.1-1c0,0.3,0,0.7-0.1,1c0,0.3,0,0.7-0.1,1l-0.4,4.5h-2.9l1.4-11.3h3
			l0.6,2.9c0,0.1,0,0.2,0.1,0.4c0.2,1.2,0.4,2.1,0.4,2.9l0,0c0-0.5,0.1-1,0.2-1.5c0.2-0.6,0.3-1.2,0.5-1.9L40,0.3h3l1.2,11.2H41.4z"
			/>
		<path class="st2" d="M45.2,6.4V0.3h2.9v6.1c0,0.7,0.1,1.2,0.2,1.5c0.1,0.3,0.3,0.4,0.6,0.4s0.5-0.1,0.6-0.4
			c0.1-0.3,0.2-0.8,0.2-1.5V0.3h2.9v6.1c0,0.8,0,1.5-0.1,2s-0.2,1-0.4,1.3c-0.3,0.7-0.8,1.2-1.3,1.6c-0.6,0.4-1.2,0.6-1.9,0.6
			s-1.4-0.2-1.9-0.6c-0.6-0.4-1-0.9-1.3-1.6c-0.2-0.3-0.3-0.8-0.4-1.3C45.2,7.8,45.2,7.2,45.2,6.4z"/>
		<path class="st2" d="M53.6,10.5l0.9-3.2c0.4,0.4,0.8,0.7,1.1,0.9s0.6,0.3,0.9,0.3c0.2,0,0.4-0.1,0.5-0.2c0.1,0,0.2-0.1,0.2-0.3
			c0-0.3-0.3-0.6-0.9-0.7c-0.2-0.1-0.3-0.1-0.4-0.1c-0.6-0.2-1.1-0.6-1.4-1.1c-0.3-0.5-0.5-1.2-0.5-2c0-1.2,0.3-2.2,0.9-3
			C55.6,0.4,56.4,0,57.4,0c0.5,0,0.9,0.1,1.4,0.3c0.4,0.1,0.9,0.4,1.3,0.7l-0.8,3c-0.3-0.3-0.6-0.5-0.8-0.7
			c-0.3-0.2-0.6-0.2-0.8-0.2s-0.4,0-0.5,0.1S57,3.4,57,3.6c0,0.3,0.4,0.6,1.2,0.8c0.1,0,0.2,0.1,0.3,0.1c0.6,0.2,1,0.5,1.3,1.1
			c0.3,0.5,0.5,1.2,0.5,2c0,1.2-0.3,2.3-1,3.1c-0.6,0.8-1.5,1.2-2.5,1.2c-0.5,0-1.1-0.1-1.6-0.3C54.7,11.3,54.1,11,53.6,10.5z"/>
		<path class="st2" d="M61.2,11.5V0.3h5.4v3.1H64v1.1h2.3v2.9h-2.2v1.2h2.6v3.1h-5.4L61.2,11.5L61.2,11.5z"/>
		<path class="st2" d="M67.8,6.4V0.3h2.9v6.1c0,0.7,0.1,1.2,0.2,1.5s0.3,0.4,0.6,0.4c0.3,0,0.5-0.1,0.6-0.4c0.1-0.3,0.2-0.8,0.2-1.5
			V0.3h2.9v6.1c0,0.8,0,1.5-0.1,2s-0.2,1-0.4,1.3c-0.3,0.7-0.8,1.2-1.3,1.6c-0.6,0.4-1.2,0.6-1.9,0.6c-0.7,0-1.4-0.2-1.9-0.6
			c-0.6-0.4-1-0.9-1.3-1.6c-0.2-0.3-0.3-0.8-0.4-1.3C67.8,7.8,67.8,7.2,67.8,6.4z"/>
		<path class="st2" d="M80.6,11.5V0.3H83c0.7,0,1.4,0.1,1.9,0.2s1,0.3,1.3,0.5c0.7,0.5,1.2,1.2,1.6,2s0.6,1.8,0.6,2.9
			s-0.2,2-0.6,2.9c-0.4,0.8-0.9,1.5-1.6,2c-0.3,0.2-0.8,0.4-1.3,0.5s-1.2,0.2-2.1,0.2H80.6z M83.5,8.1c0.7,0,1.1-0.2,1.4-0.5
			c0.3-0.4,0.5-0.9,0.5-1.6S85.3,4.7,85,4.4c-0.3-0.4-0.7-0.5-1.3-0.5h-0.1L83.5,8.1L83.5,8.1z"/>
		<path class="st2" d="M98,5.9c0,0.8-0.1,1.6-0.3,2.3c-0.2,0.7-0.5,1.3-0.9,1.9c-0.4,0.5-0.9,1-1.4,1.3s-1.1,0.4-1.7,0.4
			s-1.2-0.1-1.7-0.4c-0.5-0.3-1-0.7-1.4-1.3c-0.4-0.5-0.7-1.2-0.9-1.9c-0.2-0.7-0.3-1.5-0.3-2.3s0.1-1.6,0.3-2.3
			c0.2-0.7,0.5-1.3,0.9-1.9s0.9-1,1.4-1.3S93,0,93.6,0s1.2,0.1,1.7,0.4s1,0.7,1.4,1.3c0.4,0.5,0.7,1.2,0.9,1.9
			C97.9,4.3,98,5.1,98,5.9z M93.6,8c0.4,0,0.7-0.2,1-0.6C94.8,7,95,6.5,95,5.9s-0.1-1.2-0.4-1.6c-0.2-0.4-0.6-0.6-1-0.6
			s-0.7,0.2-1,0.6s-0.4,0.9-0.4,1.6c0,0.6,0.1,1.2,0.4,1.5C92.9,7.8,93.2,8,93.6,8z"/>
	</g>
	<g>
		<path class="st2" d="M33.3,28.1V16.7h3.2v11.4H33.3z"/>
		<path class="st2" d="M38.2,28.1V16.7H42c1.3,0,2.3,0.3,2.9,1c0.6,0.7,0.9,1.7,0.9,3.2c0,1.3-0.3,2.3-0.8,2.9
			c-0.6,0.6-1.4,0.9-2.6,0.9h-1v3.4C41.4,28.1,38.2,28.1,38.2,28.1z M41.3,19.9v1.9h0.5c0.3,0,0.5-0.1,0.7-0.2
			c0.2-0.2,0.2-0.4,0.2-0.7c0-0.3-0.1-0.5-0.2-0.7c-0.2-0.2-0.4-0.3-0.7-0.3C41.8,19.8,41.3,19.8,41.3,19.9z"/>
		<path class="st2" d="M46.9,28.1V16.7h3.2v11.4H46.9z"/>
		<path class="st2" d="M51.8,28.1V16.7h4c1.2,0,2,0.3,2.6,1s0.9,1.6,0.9,2.9c0,0.8-0.2,1.5-0.5,2s-0.7,0.8-1.2,0.9l2.3,4.6h-3.5
			l-1.5-3.8v3.8H51.8z M54.9,19.6v2.2h0.5c0.3,0,0.5-0.1,0.7-0.3c0.2-0.2,0.2-0.5,0.2-0.8c0-0.4-0.1-0.6-0.2-0.8
			c-0.2-0.2-0.4-0.3-0.7-0.3C55.4,19.6,54.9,19.6,54.9,19.6z"/>
		<path class="st2" d="M59.4,28.1l3.1-11.4H66l3.1,11.4h-3.4l-0.3-1.4H63l-0.3,1.4H59.4z M63.6,24h1.3l-0.3-1.3
			c-0.1-0.7-0.2-1.2-0.3-1.5c0-0.4-0.1-0.7-0.1-1l0,0c0,0.3,0,0.6-0.1,1c0,0.4-0.1,0.9-0.3,1.5L63.6,24z"/>
		<path class="st2" d="M69.6,28.1V16.7h3.1l2.7,6c0-0.3-0.1-0.6-0.1-0.9s0-0.7,0-1.3v-3.8h3v11.4h-3.1l-2.7-5.9
			c0,0.3,0.1,0.5,0.1,0.8s0,0.6,0,1v4.1C72.6,28.1,69.6,28.1,69.6,28.1z"/>
		<path class="st2" d="M85.6,24h-1.4v-2.7H89c0,0.2,0,0.4,0,0.5s0,0.2,0,0.3c0,0.7,0,1.3-0.1,1.8s-0.2,1-0.4,1.4
			c-0.4,1-1,1.7-1.7,2.2s-1.5,0.8-2.4,0.8c-0.7,0-1.3-0.1-1.8-0.4c-0.6-0.3-1.1-0.7-1.5-1.3c-0.4-0.6-0.8-1.2-1-1.9
			c-0.2-0.7-0.3-1.5-0.3-2.4s0.1-1.6,0.3-2.4c0.2-0.7,0.6-1.4,1-1.9c0.4-0.6,0.9-1,1.5-1.3s1.2-0.4,1.9-0.4c0.9,0,1.7,0.3,2.4,0.8
			c0.7,0.5,1.3,1.3,1.7,2.2l-2.8,1.4c-0.1-0.3-0.3-0.6-0.5-0.7c-0.2-0.2-0.4-0.2-0.7-0.2c-0.5,0-0.8,0.2-1.1,0.7
			c-0.3,0.5-0.4,1.1-0.4,1.9s0.1,1.4,0.4,1.9c0.3,0.4,0.7,0.7,1.2,0.7c0.3,0,0.6-0.1,0.7-0.2C85.4,24.6,85.5,24.3,85.6,24z"/>
		<path class="st2" d="M89.1,28.1l3.1-11.4h3.5l3.1,11.4h-3.4l-0.3-1.4h-2.4l-0.3,1.4C92.4,28.1,89.1,28.1,89.1,28.1z M93.2,24h1.3
			l-0.3-1.3c-0.1-0.7-0.2-1.2-0.3-1.5c0-0.4-0.1-0.7-0.1-1h-0.1c0,0.3,0,0.6-0.1,1c0,0.4-0.1,0.9-0.3,1.5L93.2,24z"/>
	</g>
</g>
<g>
	<path class="st2" d="M120.7,11l-3-8.9h0.8l2.1,6.8l2.3-7.2l2.4,7.1l2.1-6.8h0.8l-2.9,8.9L123,3.7L120.7,11z"/>
	<path class="st2" d="M129.3,10.7V1.6h0.7v4.7c0.2-0.3,0.5-0.6,0.8-0.7s0.7-0.2,1.1-0.2c0.6,0,1,0.2,1.4,0.5s0.5,0.8,0.5,1.4v3.5
		H133V7.5c0-0.5-0.1-0.9-0.3-1.2s-0.6-0.4-1-0.4c-0.6,0-1,0.2-1.2,0.5s-0.4,0.8-0.4,1.5v2.7H129.3z"/>
	<path class="st2" d="M139.4,10.7V9.7c-0.2,0.4-0.4,0.7-0.7,0.9s-0.7,0.3-1.1,0.3c-0.7,0-1.3-0.3-1.8-0.8s-0.7-1.2-0.7-2
		c0-0.8,0.2-1.5,0.7-2s1-0.8,1.7-0.8c0.4,0,0.8,0.1,1.1,0.3s0.6,0.5,0.7,0.9V5.5h0.7v5.2H139.4z M135.9,8.1c0,0.7,0.2,1.2,0.5,1.6
		s0.7,0.5,1.3,0.5c0.5,0,1-0.2,1.3-0.6s0.5-0.9,0.5-1.6c0-0.6-0.2-1.1-0.5-1.5S138.2,6,137.7,6s-1,0.2-1.3,0.6S135.9,7.5,135.9,8.1z
		"/>
	<path class="st2" d="M142.2,6.1h-1V5.5h1V3.4h0.7v2.1h1v0.6h-1v4.6h-0.7V6.1z"/>
	<path class="st2" d="M148.4,3.5c0-0.2,0.1-0.3,0.2-0.4s0.2-0.2,0.4-0.2s0.3,0.1,0.4,0.2s0.2,0.2,0.2,0.4c0,0.2-0.1,0.3-0.2,0.4
		S149.1,4,148.9,4c-0.2,0-0.3-0.1-0.4-0.2S148.4,3.6,148.4,3.5z M148.6,10.7V5.5h0.7v5.2H148.6z"/>
	<path class="st2" d="M150.7,9.8l0.7-0.4c0.1,0.3,0.3,0.5,0.5,0.7s0.5,0.2,0.8,0.2c0.3,0,0.5-0.1,0.7-0.2s0.3-0.4,0.3-0.6
		c0-0.4-0.4-0.7-1.1-1c-0.1,0-0.1-0.1-0.2-0.1c-0.5-0.2-0.9-0.4-1.1-0.7s-0.3-0.5-0.3-0.8c0-0.4,0.2-0.8,0.5-1.1s0.7-0.4,1.2-0.4
		c0.4,0,0.8,0.1,1.1,0.3s0.5,0.4,0.7,0.8l-0.7,0.4c-0.1-0.2-0.2-0.4-0.4-0.6S152.8,6,152.6,6c-0.2,0-0.5,0.1-0.6,0.2
		s-0.2,0.3-0.2,0.5c0,0.2,0.1,0.4,0.2,0.5s0.5,0.3,1,0.5c0.6,0.2,1,0.4,1.2,0.7s0.3,0.6,0.3,1c0,0.5-0.2,0.9-0.5,1.1
		s-0.8,0.4-1.4,0.4c-0.4,0-0.8-0.1-1.1-0.3S150.8,10.1,150.7,9.8z"/>
	<path class="st2" d="M159.5,6.1h-1V5.5h1V3.4h0.7v2.1h1v0.6h-1v4.6h-0.7V6.1z"/>
	<path class="st2" d="M162.3,10.7V1.6h0.7v4.7c0.2-0.3,0.5-0.6,0.8-0.7s0.7-0.2,1.1-0.2c0.6,0,1,0.2,1.4,0.5s0.5,0.8,0.5,1.4v3.5
		h-0.7V7.5c0-0.5-0.1-0.9-0.3-1.2s-0.6-0.4-1-0.4c-0.6,0-1,0.2-1.2,0.5S163,7.3,163,8v2.7H162.3z"/>
	<path class="st2" d="M173,8.1h-4.1c0,0.7,0.2,1.2,0.5,1.6s0.7,0.6,1.3,0.6c0.4,0,0.7-0.1,1-0.3s0.5-0.5,0.7-0.9l0.7,0.4
		c-0.3,0.5-0.6,0.9-1,1.2s-0.9,0.4-1.4,0.4c-0.8,0-1.4-0.3-1.8-0.8s-0.7-1.2-0.7-2c0-0.9,0.2-1.5,0.7-2.1s1.1-0.8,1.8-0.8
		c0.7,0,1.3,0.2,1.7,0.7s0.7,1.1,0.7,1.9V8.1z M172.2,7.5c0-0.5-0.2-0.8-0.5-1.1S171,6,170.5,6c-0.4,0-0.8,0.1-1.1,0.4
		S169,7,168.9,7.5H172.2z"/>
	<path class="st2" d="M120.9,25.3c-0.4,0-0.7-0.1-1.1-0.2s-0.6-0.4-0.9-0.6c-0.3-0.3-0.5-0.6-0.6-0.9s-0.2-0.7-0.2-1.1
		c0-0.4,0.1-0.7,0.2-1.1s0.3-0.6,0.6-0.9c0.3-0.3,0.6-0.5,0.9-0.6s0.7-0.2,1.1-0.2c0.4,0,0.7,0.1,1.1,0.2s0.7,0.3,0.9,0.6
		s0.5,0.6,0.6,0.9s0.2,0.7,0.2,1.1s-0.1,0.7-0.2,1.1s-0.3,0.6-0.6,0.9c-0.3,0.3-0.6,0.5-0.9,0.6S121.3,25.3,120.9,25.3z M120.9,24.6
		c0.6,0,1.1-0.2,1.5-0.6s0.6-0.9,0.6-1.5c0-0.6-0.2-1.1-0.6-1.5s-0.9-0.6-1.5-0.6c-0.6,0-1.1,0.2-1.4,0.6s-0.6,0.9-0.6,1.5
		c0,0.6,0.2,1.1,0.6,1.5S120.4,24.6,120.9,24.6z"/>
	<path class="st2" d="M126,20.9c0.3-0.4,0.5-0.8,0.8-1s0.6-0.3,0.9-0.3c0.1,0,0.2,0,0.3,0s0.2,0,0.3,0.1l-0.2,0.7
		c-0.1,0-0.2,0-0.2-0.1s-0.2,0-0.2,0c-0.4,0-0.8,0.2-1.1,0.6s-0.5,0.9-0.5,1.5v2.6h-0.7v-5.2h0.7V20.9z"/>
	<path class="st2" d="M129,25.1v-5.2h0.7v0.8c0.2-0.3,0.5-0.6,0.8-0.7s0.7-0.2,1.1-0.2c0.6,0,1,0.2,1.4,0.5s0.5,0.8,0.5,1.4v3.5
		h-0.7v-3.2c0-0.5-0.1-0.9-0.3-1.2s-0.6-0.4-1-0.4c-0.6,0-1,0.2-1.2,0.5s-0.4,0.8-0.4,1.5v2.7H129z"/>
	<path class="st2" d="M139.1,25.1v-0.9c-0.2,0.4-0.4,0.7-0.7,0.9s-0.7,0.3-1.1,0.3c-0.7,0-1.3-0.3-1.8-0.8s-0.7-1.2-0.7-2
		c0-0.8,0.2-1.5,0.7-2s1-0.8,1.7-0.8c0.4,0,0.8,0.1,1.1,0.3s0.6,0.5,0.7,0.9v-0.9h0.7v5.2H139.1z M135.6,22.5c0,0.7,0.2,1.2,0.5,1.6
		s0.7,0.5,1.3,0.5c0.5,0,1-0.2,1.3-0.6s0.5-0.9,0.5-1.6c0-0.6-0.2-1.1-0.5-1.5s-0.7-0.5-1.3-0.5s-1,0.2-1.3,0.6
		S135.6,21.9,135.6,22.5z"/>
	<path class="st2" d="M142.5,25.1h-0.7v-5.2h0.7v0.8c0.2-0.3,0.4-0.6,0.7-0.8s0.6-0.3,1-0.3c0.4,0,0.7,0.1,1,0.3s0.5,0.4,0.6,0.8
		c0.2-0.3,0.5-0.6,0.8-0.8s0.7-0.3,1-0.3c0.6,0,1,0.2,1.3,0.5s0.5,0.8,0.5,1.4v3.5h-0.7v-3.2c0-0.5-0.1-0.9-0.3-1.1
		s-0.5-0.4-0.9-0.4c-0.5,0-0.9,0.2-1.1,0.5s-0.3,0.8-0.3,1.5v2.7h-0.7v-3.2c0-0.5-0.1-0.9-0.3-1.2s-0.5-0.4-0.9-0.4
		c-0.5,0-0.9,0.2-1.1,0.5s-0.4,0.8-0.4,1.5V25.1z"/>
	<path class="st2" d="M155.7,22.5h-4.1c0,0.7,0.2,1.2,0.5,1.6s0.7,0.6,1.3,0.6c0.4,0,0.7-0.1,1-0.3s0.5-0.5,0.7-0.9l0.7,0.4
		c-0.3,0.5-0.6,0.9-1,1.2s-0.9,0.4-1.4,0.4c-0.8,0-1.4-0.3-1.8-0.8s-0.7-1.2-0.7-2c0-0.9,0.2-1.5,0.7-2.1s1.1-0.8,1.8-0.8
		c0.7,0,1.3,0.2,1.7,0.7s0.7,1.1,0.7,1.9V22.5z M154.9,21.9c0-0.5-0.2-0.8-0.5-1.1s-0.7-0.4-1.1-0.4c-0.4,0-0.8,0.1-1.1,0.4
		s-0.5,0.6-0.5,1.1H154.9z"/>
	<path class="st2" d="M157.2,25.1v-5.2h0.7v0.8c0.2-0.3,0.5-0.6,0.8-0.7s0.7-0.2,1.1-0.2c0.6,0,1,0.2,1.4,0.5s0.5,0.8,0.5,1.4v3.5
		h-0.7v-3.2c0-0.5-0.1-0.9-0.3-1.2s-0.6-0.4-1-0.4c-0.6,0-1,0.2-1.2,0.5s-0.4,0.8-0.4,1.5v2.7H157.2z"/>
	<path class="st2" d="M163.6,20.5h-1v-0.6h1v-2.1h0.7v2.1h1v0.6h-1v4.6h-0.7V20.5z"/>
	<path class="st2" d="M167.2,18.7h-0.7v-0.2c0-0.7,0.2-1.2,0.6-1.6s0.9-0.6,1.6-0.6c0.6,0,1.1,0.2,1.4,0.5s0.5,0.8,0.5,1.4
		c0,0.4-0.1,0.8-0.3,1.1s-0.6,0.6-1.1,1c-0.1,0.1-0.2,0.2-0.4,0.3c-0.8,0.5-1.2,0.9-1.2,1.4c0,0.3,0.1,0.5,0.3,0.7s0.4,0.3,0.7,0.3
		c0.3,0,0.6-0.1,0.8-0.3s0.3-0.4,0.3-0.8v-0.1h0.6v0.1c0,0.5-0.2,0.9-0.5,1.2s-0.8,0.4-1.4,0.4c-0.5,0-0.9-0.1-1.2-0.4
		s-0.5-0.7-0.5-1.1c0-0.3,0.1-0.6,0.3-0.9s0.5-0.6,1-0.9c0.1-0.1,0.2-0.2,0.4-0.3c0.9-0.6,1.3-1.1,1.3-1.6c0-0.4-0.1-0.7-0.3-0.9
		s-0.5-0.3-0.9-0.3c-0.4,0-0.8,0.1-1,0.4S167.2,18.1,167.2,18.7L167.2,18.7z M167.8,24.7c0-0.2,0.1-0.3,0.2-0.4s0.3-0.2,0.4-0.2
		s0.3,0.1,0.4,0.2s0.2,0.3,0.2,0.4s-0.1,0.3-0.2,0.4s-0.3,0.2-0.4,0.2s-0.3-0.1-0.4-0.2S167.8,24.9,167.8,24.7z"/>
</g>
</svg>
