<?xml version="1.0" encoding="utf-8"?>
<!-- Generator: Adobe Illustrator 25.2.1, SVG Export Plug-In . SVG Version: 6.00 Build 0)  -->
<svg version="1.1" id="Layer_1" xmlns="http://www.w3.org/2000/svg" xmlns:xlink="http://www.w3.org/1999/xlink" x="0px" y="0px"
	 viewBox="0 0 218.3 28.3" style="enable-background:new 0 0 218.3 28.3;" xml:space="preserve">
<style type="text/css">
	.st0{opacity:0;fill:#FFFFFF;}
	.st1{fill:#FAB80E;}
	.st2{fill:none;stroke:#FAB80E;stroke-miterlimit:10;}
</style>
<rect class="st0" width="218.3" height="28.3"/>
<g>
	<g>
		<path class="st1" d="M120.6,17.8l-3-8.9h0.8l2.1,6.8l2.3-7.2l2.4,7.1l2.1-6.8h0.8l-2.9,8.9l-2.4-7.3L120.6,17.8z"/>
		<path class="st1" d="M129.2,17.4v-9h0.7v4.7c0.2-0.3,0.5-0.6,0.8-0.7s0.7-0.2,1.1-0.2c0.6,0,1,0.2,1.4,0.5
			c0.4,0.3,0.5,0.8,0.5,1.4v3.5H133v-3.4c0-0.5-0.1-0.9-0.3-1.2s-0.6-0.4-1-0.4c-0.6,0-1,0.2-1.2,0.5s-0.4,0.8-0.4,1.5v2.7h-0.9
			V17.4z"/>
		<path class="st1" d="M139.3,17.4v-0.9c-0.2,0.4-0.4,0.7-0.7,0.9s-0.7,0.3-1.1,0.3c-0.7,0-1.3-0.3-1.8-0.8s-0.7-1.2-0.7-2
			s0.2-1.5,0.7-2s1-0.8,1.7-0.8c0.4,0,0.8,0.1,1.1,0.3s0.6,0.5,0.7,0.9v-1.1h0.7v5.2H139.3z M135.8,14.9c0,0.7,0.2,1.2,0.5,1.6
			s0.7,0.5,1.3,0.5c0.5,0,1-0.2,1.3-0.6c0.3-0.4,0.5-0.9,0.5-1.6c0-0.6-0.2-1.1-0.5-1.5s-0.7-0.5-1.3-0.5s-1,0.2-1.3,0.6
			S135.8,14.2,135.8,14.9z"/>
		<path class="st1" d="M142.1,12.9h-1v-0.7h1v-2.1h0.7v2.1h1v0.6h-1v4.6h-0.7V12.9z"/>
		<path class="st1" d="M148.2,10.2c0-0.2,0.1-0.3,0.2-0.4s0.2-0.2,0.4-0.2s0.3,0.1,0.4,0.2s0.2,0.2,0.2,0.4s-0.1,0.3-0.2,0.4
			s-0.2,0.2-0.4,0.2s-0.3-0.1-0.4-0.2S148.2,10.4,148.2,10.2z M148.4,17.4v-5.2h0.7v5.2H148.4z"/>
		<path class="st1" d="M150.5,16.5l0.7-0.4c0.1,0.3,0.3,0.5,0.5,0.7s0.5,0.2,0.8,0.2s0.5-0.1,0.7-0.2s0.3-0.4,0.3-0.6
			c0-0.4-0.4-0.7-1.1-1c-0.1,0-0.1-0.1-0.2-0.1c-0.5-0.2-0.9-0.4-1.1-0.7s-0.3-0.5-0.3-0.8c0-0.4,0.2-0.8,0.5-1.1s0.7-0.4,1.2-0.4
			c0.4,0,0.8,0.1,1.1,0.3s0.5,0.4,0.7,0.8l-0.7,0.4c-0.1-0.2-0.2-0.4-0.4-0.6s-0.4-0.2-0.7-0.2c-0.2,0-0.5,0.1-0.6,0.2
			s-0.2,0.3-0.2,0.5s0.1,0.4,0.2,0.5s0.5,0.3,1,0.5c0.6,0.2,1,0.4,1.2,0.7s0.3,0.6,0.3,1c0,0.5-0.2,0.9-0.5,1.1s-0.8,0.4-1.4,0.4
			c-0.4,0-0.8-0.1-1.1-0.3S150.7,16.9,150.5,16.5z"/>
		<path class="st1" d="M163,17.4v-0.9c-0.2,0.4-0.4,0.7-0.7,0.9s-0.7,0.3-1.1,0.3c-0.7,0-1.3-0.3-1.8-0.8s-0.7-1.2-0.7-2
			s0.2-1.5,0.7-2s1-0.8,1.7-0.8c0.4,0,0.8,0.1,1.1,0.3s0.6,0.5,0.7,0.9V8.4h0.7v9.1L163,17.4L163,17.4z M159.5,14.9
			c0,0.7,0.2,1.2,0.5,1.6s0.7,0.5,1.3,0.5c0.5,0,1-0.2,1.3-0.6c0.3-0.4,0.5-0.9,0.5-1.6c0-0.6-0.2-1.1-0.5-1.5s-0.7-0.5-1.3-0.5
			s-1,0.2-1.3,0.6S159.5,14.2,159.5,14.9z"/>
		<path class="st1" d="M170.1,14.9H166c0,0.7,0.2,1.2,0.5,1.6s0.7,0.6,1.3,0.6c0.4,0,0.7-0.1,1-0.3s0.5-0.5,0.7-0.9l0.7,0.4
			c-0.3,0.5-0.6,0.9-1,1.2s-0.9,0.4-1.4,0.4c-0.8,0-1.4-0.3-1.8-0.8s-0.7-1.2-0.7-2c0-0.9,0.2-1.5,0.7-2.1s1.1-0.8,1.8-0.8
			s1.3,0.2,1.7,0.7S170.2,14,170.1,14.9L170.1,14.9L170.1,14.9z M169.3,14.2c0-0.5-0.2-0.8-0.5-1.1s-0.7-0.4-1.1-0.4
			c-0.4,0-0.8,0.1-1.1,0.4s-0.5,0.6-0.5,1.1H169.3z"/>
		<path class="st1" d="M171.6,20v-7.8h0.7v1c0.2-0.4,0.5-0.7,0.8-0.9s0.7-0.3,1.1-0.3c0.7,0,1.3,0.3,1.8,0.8s0.7,1.2,0.7,2
			c0,0.9-0.2,1.5-0.7,2s-1,0.8-1.7,0.8c-0.4,0-0.8-0.1-1.1-0.3s-0.6-0.5-0.8-0.9V20C172.4,20,171.6,20,171.6,20z M175.8,14.9
			c0-0.7-0.2-1.2-0.5-1.6s-0.7-0.6-1.3-0.6s-1,0.2-1.3,0.6s-0.5,0.9-0.5,1.5c0,0.7,0.2,1.2,0.5,1.6c0.3,0.4,0.8,0.6,1.3,0.6
			s0.9-0.2,1.2-0.6C175.5,16,175.8,15.5,175.8,14.9z"/>
		<path class="st1" d="M178,10.2c0-0.2,0.1-0.3,0.2-0.4s0.2-0.2,0.4-0.2s0.3,0.1,0.4,0.2s0.2,0.2,0.2,0.4s-0.1,0.3-0.2,0.4
			s-0.2,0.2-0.4,0.2s-0.3-0.1-0.4-0.2S178,10.4,178,10.2z M178.2,17.4v-5.2h0.7v5.2H178.2z"/>
		<path class="st1" d="M184.9,13.2c-0.2-0.2-0.5-0.3-0.8-0.4s-0.6-0.1-0.8-0.1c-0.6,0-1.2,0.2-1.5,0.6s-0.6,1-0.6,1.6
			s0.2,1.1,0.6,1.5c0.4,0.4,0.9,0.6,1.5,0.6c0.3,0,0.6,0,0.9-0.1s0.6-0.2,0.8-0.4v0.8c-0.3,0.1-0.5,0.3-0.8,0.3s-0.6,0.1-1,0.1
			c-0.8,0-1.4-0.3-2-0.8s-0.8-1.2-0.8-2s0.3-1.5,0.8-2.1s1.2-0.8,2.1-0.8c0.3,0,0.6,0,0.9,0.1s0.5,0.1,0.7,0.3L184.9,13.2z"/>
		<path class="st1" d="M186.5,12.9h-1v-0.7h1v-2.1h0.7v2.1h1v0.6h-1v4.6h-0.7V12.9z"/>
		<path class="st1" d="M193.8,14.9h-4.1c0,0.7,0.2,1.2,0.5,1.6s0.7,0.6,1.3,0.6c0.4,0,0.7-0.1,1-0.3s0.5-0.5,0.7-0.9l0.7,0.4
			c-0.3,0.5-0.6,0.9-1,1.2s-0.9,0.4-1.4,0.4c-0.8,0-1.4-0.3-1.8-0.8s-0.7-1.2-0.7-2c0-0.9,0.2-1.5,0.7-2.1s1.1-0.8,1.8-0.8
			s1.3,0.2,1.7,0.7S193.9,14,193.8,14.9L193.8,14.9L193.8,14.9z M192.9,14.2c0-0.5-0.2-0.8-0.5-1.1s-0.7-0.4-1.1-0.4
			c-0.4,0-0.8,0.1-1.1,0.4s-0.5,0.6-0.5,1.1H192.9z"/>
		<path class="st1" d="M199.1,17.4v-0.9c-0.2,0.4-0.4,0.7-0.7,0.9s-0.7,0.3-1.1,0.3c-0.7,0-1.3-0.3-1.8-0.8s-0.7-1.2-0.7-2
			s0.2-1.5,0.7-2s1-0.8,1.7-0.8c0.4,0,0.8,0.1,1.1,0.3s0.6,0.5,0.7,0.9V8.4h0.7v9.1L199.1,17.4L199.1,17.4z M195.6,14.9
			c0,0.7,0.2,1.2,0.5,1.6s0.7,0.5,1.3,0.5c0.5,0,1-0.2,1.3-0.6c0.3-0.4,0.5-0.9,0.5-1.6c0-0.6-0.2-1.1-0.5-1.5s-0.7-0.5-1.3-0.5
			s-1,0.2-1.3,0.6S195.6,14.2,195.6,14.9z"/>
		<path class="st1" d="M202.5,11h-0.7v-0.2c0-0.7,0.2-1.2,0.6-1.6s0.9-0.6,1.6-0.6c0.6,0,1.1,0.2,1.4,0.5s0.5,0.8,0.5,1.4
			c0,0.4-0.1,0.8-0.3,1.1s-0.6,0.6-1.1,1c-0.1,0.1-0.2,0.2-0.4,0.3c-0.8,0.5-1.2,0.9-1.2,1.4c0,0.3,0.1,0.5,0.3,0.7s0.4,0.3,0.7,0.3
			s0.6-0.1,0.8-0.3s0.3-0.4,0.3-0.8v-0.1h0.6v0.1c0,0.5-0.2,0.9-0.5,1.2s-0.8,0.4-1.4,0.4c-0.5,0-0.9-0.1-1.2-0.4s-0.5-0.7-0.5-1.1
			c0-0.3,0.1-0.6,0.3-0.9s0.5-0.6,1-0.9c0.1-0.1,0.2-0.2,0.4-0.3c0.9-0.6,1.3-1.1,1.3-1.6c0-0.4-0.1-0.7-0.3-0.9s-0.5-0.3-0.9-0.3
			s-0.8,0.1-1,0.4S202.5,10.5,202.5,11L202.5,11z M203.2,17.1c0-0.2,0.1-0.3,0.2-0.4s0.3-0.2,0.4-0.2s0.3,0.1,0.4,0.2
			s0.2,0.3,0.2,0.4s-0.1,0.3-0.2,0.4s-0.3,0.2-0.4,0.2s-0.3-0.1-0.4-0.2S203.2,17.2,203.2,17.1z"/>
	</g>
	<line class="st2" x1="109.1" y1="0" x2="109.1" y2="28.3"/>
	<g>
		<g>
			<path class="st1" d="M5.9,5.8c0,0.4-0.1,0.9-0.2,1.6c0,0.1,0,0.2,0,0.3l-0.6,3.8H2.6L0.2,0.3h2.9l0.6,5c0.1,0.4,0.1,0.8,0.1,1.2
				c0,0.4,0,0.7,0.1,1H4c0-0.4,0.1-1,0.2-1.8c0-0.1,0-0.1,0-0.2L5,0.3h2.1l0.8,5.3c0,0,0,0.1,0,0.2C7.9,6.4,8,7,8,7.4h0.1
				c0-0.3,0-0.7,0.1-1c-0.1-0.3,0-0.7,0-1.2l0.6-5h2.9L9.4,11.5H6.9L6.3,7.7c0-0.1,0-0.2,0-0.3C6.1,6.7,6.1,6.2,5.9,5.8L5.9,5.8z"/>
			<path class="st1" d="M12.3,11.5V0.3h3v11.3h-3V11.5z"/>
			<path class="st1" d="M16.9,11.5V0.3h2.9v4.8l1.8-4.8h3.3l-2.4,5.5l2.8,5.7h-3.5l-2-4.7v4.7H16.9z"/>
			<path class="st1" d="M25.6,11.5V0.3h3v11.3h-3V11.5z"/>
			<path class="st1" d="M41.4,11.5L41,7c0-0.3,0-0.7-0.1-1c0-0.3,0-0.7-0.1-1c0,0.3-0.1,0.7-0.1,1c-0.1,0.4-0.1,0.7-0.2,1.2
				l-0.9,4.3h-1.7L37,7.2c-0.1-0.4-0.2-0.8-0.2-1.2c-0.1-0.4-0.1-0.7-0.1-1c0,0.3,0,0.7-0.1,1c0,0.3,0,0.7-0.1,1l-0.4,4.5h-2.9
				l1.4-11.3h3l0.6,2.9c0,0.1,0,0.2,0.1,0.4c0.2,1.2,0.4,2.1,0.4,2.9l0,0c0-0.5,0.1-1,0.2-1.5c0.2-0.6,0.3-1.2,0.5-1.9L40,0.3h3
				l1.2,11.2H41.4z"/>
			<path class="st1" d="M45.2,6.4V0.3h2.9v6.1c0,0.7,0.1,1.2,0.2,1.5c0.1,0.3,0.3,0.4,0.6,0.4s0.5-0.1,0.6-0.4
				c0.1-0.3,0.2-0.8,0.2-1.5V0.3h2.9v6.1c0,0.8,0,1.5-0.1,2c-0.1,0.5-0.2,1-0.4,1.3c-0.3,0.7-0.8,1.2-1.3,1.6
				c-0.6,0.4-1.2,0.6-1.9,0.6s-1.4-0.2-1.9-0.6c-0.6-0.4-1-0.9-1.3-1.6c-0.2-0.3-0.3-0.8-0.4-1.3C45.2,7.8,45.2,7.2,45.2,6.4z"/>
			<path class="st1" d="M53.6,10.5l0.9-3.2c0.4,0.4,0.8,0.7,1.1,0.9s0.6,0.3,0.9,0.3c0.2,0,0.4-0.1,0.5-0.2c0.1,0,0.2-0.1,0.2-0.3
				c0-0.3-0.3-0.6-0.9-0.7c-0.2-0.1-0.3-0.1-0.4-0.1c-0.6-0.2-1.1-0.6-1.4-1.1c-0.3-0.5-0.5-1.2-0.5-2c0-1.2,0.3-2.2,0.9-3
				C55.6,0.4,56.4,0,57.4,0c0.5,0,0.9,0.1,1.4,0.3c0.4,0.1,0.9,0.4,1.3,0.7l-0.8,3c-0.3-0.3-0.6-0.5-0.8-0.7
				c-0.3-0.2-0.6-0.2-0.8-0.2s-0.4,0-0.5,0.1S57,3.4,57,3.6c0,0.3,0.4,0.6,1.2,0.8c0.1,0,0.2,0.1,0.3,0.1c0.6,0.2,1,0.5,1.3,1.1
				c0.3,0.5,0.5,1.2,0.5,2c0,1.2-0.3,2.3-1,3.1c-0.6,0.8-1.5,1.2-2.5,1.2c-0.5,0-1.1-0.1-1.6-0.3C54.7,11.3,54.1,11,53.6,10.5z"/>
			<path class="st1" d="M61.2,11.5V0.3h5.4v3.1H64v1.1h2.3v2.9h-2.2v1.2h2.6v3.1h-5.4L61.2,11.5L61.2,11.5z"/>
			<path class="st1" d="M67.8,6.4V0.3h2.9v6.1c0,0.7,0.1,1.2,0.2,1.5c0.1,0.3,0.3,0.4,0.6,0.4c0.3,0,0.5-0.1,0.6-0.4
				c0.1-0.3,0.2-0.8,0.2-1.5V0.3h2.9v6.1c0,0.8,0,1.5-0.1,2c-0.1,0.5-0.2,1-0.4,1.3c-0.3,0.7-0.8,1.2-1.3,1.6
				c-0.6,0.4-1.2,0.6-1.9,0.6c-0.7,0-1.4-0.2-1.9-0.6c-0.6-0.4-1-0.9-1.3-1.6c-0.2-0.3-0.3-0.8-0.4-1.3C67.8,7.8,67.8,7.2,67.8,6.4z
				"/>
			<path class="st1" d="M80.6,11.5V0.3H83c0.7,0,1.4,0.1,1.9,0.2s1,0.3,1.3,0.5c0.7,0.5,1.2,1.2,1.6,2s0.6,1.8,0.6,2.9
				s-0.2,2-0.6,2.9c-0.4,0.8-0.9,1.5-1.6,2c-0.3,0.2-0.8,0.4-1.3,0.5s-1.2,0.2-2.1,0.2H80.6z M83.5,8.1c0.7,0,1.1-0.2,1.4-0.5
				c0.3-0.4,0.5-0.9,0.5-1.6S85.3,4.7,85,4.4c-0.3-0.4-0.7-0.5-1.3-0.5h-0.1L83.5,8.1L83.5,8.1z"/>
			<path class="st1" d="M98,5.9c0,0.8-0.1,1.6-0.3,2.3c-0.2,0.7-0.5,1.3-0.9,1.9c-0.4,0.5-0.9,1-1.4,1.3s-1.1,0.4-1.7,0.4
				s-1.2-0.1-1.7-0.4c-0.5-0.3-1-0.7-1.4-1.3c-0.4-0.5-0.7-1.2-0.9-1.9c-0.2-0.7-0.3-1.5-0.3-2.3s0.1-1.6,0.3-2.3
				c0.2-0.7,0.5-1.3,0.9-1.9s0.9-1,1.4-1.3S93,0,93.6,0s1.2,0.1,1.7,0.4s1,0.7,1.4,1.3c0.4,0.5,0.7,1.2,0.9,1.9
				C97.9,4.3,98,5.1,98,5.9z M93.6,8c0.4,0,0.7-0.2,1-0.6C94.8,7,95,6.5,95,5.9s-0.1-1.2-0.4-1.6c-0.2-0.4-0.6-0.6-1-0.6
				s-0.7,0.2-1,0.6c-0.3,0.4-0.4,0.9-0.4,1.6c0,0.6,0.1,1.2,0.4,1.5C92.9,7.8,93.2,8,93.6,8z"/>
		</g>
		<g>
			<path class="st1" d="M33.3,28.1V16.7h3.2v11.4H33.3z"/>
			<path class="st1" d="M38.2,28.1V16.7H42c1.3,0,2.3,0.3,2.9,1c0.6,0.7,0.9,1.7,0.9,3.2c0,1.3-0.3,2.3-0.8,2.9
				c-0.6,0.6-1.4,0.9-2.6,0.9h-1v3.4C41.4,28.1,38.2,28.1,38.2,28.1z M41.3,19.9v1.9h0.5c0.3,0,0.5-0.1,0.7-0.2
				c0.2-0.2,0.2-0.4,0.2-0.7c0-0.3-0.1-0.5-0.2-0.7c-0.2-0.2-0.4-0.3-0.7-0.3C41.8,19.8,41.3,19.8,41.3,19.9z"/>
			<path class="st1" d="M46.9,28.1V16.7h3.2v11.4H46.9z"/>
			<path class="st1" d="M51.8,28.1V16.7h4c1.2,0,2,0.3,2.6,1s0.9,1.6,0.9,2.9c0,0.8-0.2,1.5-0.5,2s-0.7,0.8-1.2,0.9l2.3,4.6h-3.5
				l-1.5-3.8v3.8H51.8z M54.9,19.6v2.2h0.5c0.3,0,0.5-0.1,0.7-0.3c0.2-0.2,0.2-0.5,0.2-0.8c0-0.4-0.1-0.6-0.2-0.8
				c-0.2-0.2-0.4-0.3-0.7-0.3C55.4,19.6,54.9,19.6,54.9,19.6z"/>
			<path class="st1" d="M59.4,28.1l3.1-11.4H66l3.1,11.4h-3.4l-0.3-1.4H63l-0.3,1.4H59.4z M63.6,24h1.3l-0.3-1.3
				c-0.1-0.7-0.2-1.2-0.3-1.5c0-0.4-0.1-0.7-0.1-1l0,0c0,0.3,0,0.6-0.1,1c0,0.4-0.1,0.9-0.3,1.5L63.6,24z"/>
			<path class="st1" d="M69.6,28.1V16.7h3.1l2.7,6c0-0.3-0.1-0.6-0.1-0.9s0-0.7,0-1.3v-3.8h3v11.4h-3.1l-2.7-5.9
				c0,0.3,0.1,0.5,0.1,0.8s0,0.6,0,1v4.1C72.6,28.1,69.6,28.1,69.6,28.1z"/>
			<path class="st1" d="M85.6,24h-1.4v-2.7H89c0,0.2,0,0.4,0,0.5s0,0.2,0,0.3c0,0.7,0,1.3-0.1,1.8s-0.2,1-0.4,1.4
				c-0.4,1-1,1.7-1.7,2.2s-1.5,0.8-2.4,0.8c-0.7,0-1.3-0.1-1.8-0.4c-0.6-0.3-1.1-0.7-1.5-1.3c-0.4-0.6-0.8-1.2-1-1.9
				c-0.2-0.7-0.3-1.5-0.3-2.4s0.1-1.6,0.3-2.4c0.2-0.7,0.6-1.4,1-1.9c0.4-0.6,0.9-1,1.5-1.3s1.2-0.4,1.9-0.4c0.9,0,1.7,0.3,2.4,0.8
				c0.7,0.5,1.3,1.3,1.7,2.2l-2.8,1.4c-0.1-0.3-0.3-0.6-0.5-0.7c-0.2-0.2-0.4-0.2-0.7-0.2c-0.5,0-0.8,0.2-1.1,0.7
				c-0.3,0.5-0.4,1.1-0.4,1.9s0.1,1.4,0.4,1.9c0.3,0.4,0.7,0.7,1.2,0.7c0.3,0,0.6-0.1,0.7-0.2C85.4,24.6,85.5,24.3,85.6,24z"/>
			<path class="st1" d="M89.1,28.1l3.1-11.4h3.5l3.1,11.4h-3.4l-0.3-1.4h-2.4l-0.3,1.4C92.4,28.1,89.1,28.1,89.1,28.1z M93.2,24h1.3
				l-0.3-1.3c-0.1-0.7-0.2-1.2-0.3-1.5c0-0.4-0.1-0.7-0.1-1h-0.1c0,0.3,0,0.6-0.1,1c0,0.4-0.1,0.9-0.3,1.5L93.2,24z"/>
		</g>
	</g>
</g>
</svg>
