<?xml version="1.0" encoding="utf-8"?>
<!-- Generator: Adobe Illustrator 25.2.1, SVG Export Plug-In . SVG Version: 6.00 Build 0)  -->
<svg version="1.1" id="Layer_1" xmlns="http://www.w3.org/2000/svg" xmlns:xlink="http://www.w3.org/1999/xlink" x="0px" y="0px"
	 viewBox="0 0 201 28" style="enable-background:new 0 0 201 28;" xml:space="preserve">
<style type="text/css">
	.st0{fill:#FFBB00;}
</style>
<g>
	<g>
		<path class="st0" d="M115.7,17.6l-3-8.9h0.8l2.1,6.8l2.3-7.2l2.4,7.1l2.1-6.8h0.8l-2.9,8.9l-2.4-7.3L115.7,17.6z"/>
		<path class="st0" d="M124.3,17.2V8.2h0.7v4.7c0.2-0.3,0.5-0.6,0.8-0.7s0.7-0.2,1.1-0.2c0.6,0,1,0.2,1.4,0.5s0.5,0.8,0.5,1.4v3.5
			h-0.7V14c0-0.5-0.1-0.9-0.3-1.2s-0.6-0.4-1-0.4c-0.6,0-1,0.2-1.2,0.5s-0.4,0.8-0.4,1.5v2.7H124.3z"/>
		<path class="st0" d="M134.4,17.2v-0.9c-0.2,0.4-0.4,0.7-0.7,0.9s-0.7,0.3-1.1,0.3c-0.7,0-1.3-0.3-1.8-0.8s-0.7-1.2-0.7-2
			c0-0.8,0.2-1.5,0.7-2s1-0.8,1.7-0.8c0.4,0,0.8,0.1,1.1,0.3s0.6,0.5,0.7,0.9V12h0.7v5.2H134.4z M130.9,14.7c0,0.7,0.2,1.2,0.5,1.6
			s0.7,0.5,1.3,0.5c0.5,0,1-0.2,1.3-0.6s0.5-0.9,0.5-1.6c0-0.6-0.2-1.1-0.5-1.5s-0.7-0.5-1.3-0.5s-1,0.2-1.3,0.6
			S130.9,14,130.9,14.7z"/>
		<path class="st0" d="M137.2,12.7h-1V12h1V9.9h0.7V12h1v0.6h-1v4.6h-0.7V12.7z"/>
		<path class="st0" d="M143.3,10c0-0.2,0.1-0.3,0.2-0.4s0.2-0.2,0.4-0.2s0.3,0.1,0.4,0.2s0.2,0.2,0.2,0.4c0,0.2-0.1,0.3-0.2,0.4
			s-0.2,0.2-0.4,0.2c-0.2,0-0.3-0.1-0.4-0.2S143.3,10.2,143.3,10z M143.5,17.2V12h0.7v5.2H143.5z"/>
		<path class="st0" d="M145.6,16.3l0.7-0.4c0.1,0.3,0.3,0.5,0.5,0.7s0.5,0.2,0.8,0.2c0.3,0,0.5-0.1,0.7-0.2s0.3-0.4,0.3-0.6
			c0-0.4-0.4-0.7-1.1-1c-0.1,0-0.1-0.1-0.2-0.1c-0.5-0.2-0.9-0.4-1.1-0.7s-0.3-0.5-0.3-0.8c0-0.4,0.2-0.8,0.5-1.1s0.7-0.4,1.2-0.4
			c0.4,0,0.8,0.1,1.1,0.3s0.5,0.4,0.7,0.8l-0.7,0.4c-0.1-0.2-0.2-0.4-0.4-0.6s-0.4-0.2-0.7-0.2c-0.2,0-0.5,0.1-0.6,0.2
			s-0.2,0.3-0.2,0.5c0,0.2,0.1,0.4,0.2,0.5s0.5,0.3,1,0.5c0.6,0.2,1,0.4,1.2,0.7s0.3,0.6,0.3,1c0,0.5-0.2,0.9-0.5,1.1
			s-0.8,0.4-1.4,0.4c-0.4,0-0.8-0.1-1.1-0.3S145.8,16.7,145.6,16.3z"/>
		<path class="st0" d="M158.1,17.2v-0.9c-0.2,0.4-0.4,0.7-0.7,0.9s-0.7,0.3-1.1,0.3c-0.7,0-1.3-0.3-1.8-0.8s-0.7-1.2-0.7-2
			c0-0.8,0.2-1.5,0.7-2s1-0.8,1.7-0.8c0.4,0,0.8,0.1,1.1,0.3s0.6,0.5,0.7,0.9V8.2h0.7v9.1H158.1z M154.6,14.7c0,0.7,0.2,1.2,0.5,1.6
			s0.7,0.5,1.3,0.5c0.5,0,1-0.2,1.3-0.6s0.5-0.9,0.5-1.6c0-0.6-0.2-1.1-0.5-1.5s-0.7-0.5-1.3-0.5s-1,0.2-1.3,0.6
			S154.6,14,154.6,14.7z"/>
		<path class="st0" d="M165.2,14.7h-4.1c0,0.7,0.2,1.2,0.5,1.6s0.7,0.6,1.3,0.6c0.4,0,0.7-0.1,1-0.3s0.5-0.5,0.7-0.9l0.7,0.4
			c-0.3,0.5-0.6,0.9-1,1.2s-0.9,0.4-1.4,0.4c-0.8,0-1.4-0.3-1.8-0.8s-0.7-1.2-0.7-2c0-0.9,0.2-1.5,0.7-2.1s1.1-0.8,1.8-0.8
			c0.7,0,1.3,0.2,1.7,0.7s0.7,1.1,0.7,1.9V14.7z M164.4,14c0-0.5-0.2-0.8-0.5-1.1s-0.7-0.4-1.1-0.4c-0.4,0-0.8,0.1-1.1,0.4
			s-0.5,0.6-0.5,1.1H164.4z"/>
		<path class="st0" d="M166.7,19.8V12h0.7v1c0.2-0.4,0.5-0.7,0.8-0.9s0.7-0.3,1.1-0.3c0.7,0,1.3,0.3,1.8,0.8s0.7,1.2,0.7,2
			c0,0.9-0.2,1.5-0.7,2s-1,0.8-1.7,0.8c-0.4,0-0.8-0.1-1.1-0.3s-0.6-0.5-0.8-0.9v3.6H166.7z M170.9,14.7c0-0.7-0.2-1.2-0.5-1.6
			s-0.7-0.6-1.3-0.6c-0.6,0-1,0.2-1.3,0.6s-0.5,0.9-0.5,1.5c0,0.7,0.2,1.2,0.5,1.6s0.8,0.6,1.3,0.6c0.5,0,0.9-0.2,1.2-0.6
			S170.9,15.3,170.9,14.7z"/>
		<path class="st0" d="M173.1,10c0-0.2,0.1-0.3,0.2-0.4s0.2-0.2,0.4-0.2s0.3,0.1,0.4,0.2s0.2,0.2,0.2,0.4c0,0.2-0.1,0.3-0.2,0.4
			s-0.2,0.2-0.4,0.2c-0.2,0-0.3-0.1-0.4-0.2S173.1,10.2,173.1,10z M173.3,17.2V12h0.7v5.2H173.3z"/>
		<path class="st0" d="M180,13c-0.2-0.2-0.5-0.3-0.8-0.4s-0.6-0.1-0.8-0.1c-0.6,0-1.2,0.2-1.5,0.6s-0.6,1-0.6,1.6
			c0,0.6,0.2,1.1,0.6,1.5s0.9,0.6,1.5,0.6c0.3,0,0.6,0,0.9-0.1s0.6-0.2,0.8-0.4v0.8c-0.3,0.1-0.5,0.3-0.8,0.3s-0.6,0.1-1,0.1
			c-0.8,0-1.4-0.3-2-0.8s-0.8-1.2-0.8-2c0-0.8,0.3-1.5,0.8-2.1s1.2-0.8,2.1-0.8c0.3,0,0.6,0,0.9,0.1s0.5,0.1,0.7,0.3L180,13z"/>
		<path class="st0" d="M181.6,12.7h-1V12h1V9.9h0.7V12h1v0.6h-1v4.6h-0.7V12.7z"/>
		<path class="st0" d="M188.9,14.7h-4.1c0,0.7,0.2,1.2,0.5,1.6s0.7,0.6,1.3,0.6c0.4,0,0.7-0.1,1-0.3s0.5-0.5,0.7-0.9l0.7,0.4
			c-0.3,0.5-0.6,0.9-1,1.2s-0.9,0.4-1.4,0.4c-0.8,0-1.4-0.3-1.8-0.8s-0.7-1.2-0.7-2c0-0.9,0.2-1.5,0.7-2.1s1.1-0.8,1.8-0.8
			c0.7,0,1.3,0.2,1.7,0.7s0.7,1.1,0.7,1.9V14.7z M188,14c0-0.5-0.2-0.8-0.5-1.1s-0.7-0.4-1.1-0.4c-0.4,0-0.8,0.1-1.1,0.4
			s-0.5,0.6-0.5,1.1H188z"/>
		<path class="st0" d="M194.2,17.2v-0.9c-0.2,0.4-0.4,0.7-0.7,0.9s-0.7,0.3-1.1,0.3c-0.7,0-1.3-0.3-1.8-0.8s-0.7-1.2-0.7-2
			c0-0.8,0.2-1.5,0.7-2s1-0.8,1.7-0.8c0.4,0,0.8,0.1,1.1,0.3s0.6,0.5,0.7,0.9V8.2h0.7v9.1H194.2z M190.7,14.7c0,0.7,0.2,1.2,0.5,1.6
			s0.7,0.5,1.3,0.5c0.5,0,1-0.2,1.3-0.6s0.5-0.9,0.5-1.6c0-0.6-0.2-1.1-0.5-1.5s-0.7-0.5-1.3-0.5s-1,0.2-1.3,0.6
			S190.7,14,190.7,14.7z"/>
		<path class="st0" d="M197.6,10.8h-0.7v-0.2c0-0.7,0.2-1.2,0.6-1.6s0.9-0.6,1.6-0.6c0.6,0,1.1,0.2,1.4,0.5s0.5,0.8,0.5,1.4
			c0,0.4-0.1,0.8-0.3,1.1s-0.6,0.6-1.1,1c-0.1,0.1-0.2,0.2-0.4,0.3c-0.8,0.5-1.2,0.9-1.2,1.4c0,0.3,0.1,0.5,0.3,0.7s0.4,0.3,0.7,0.3
			c0.3,0,0.6-0.1,0.8-0.3s0.3-0.4,0.3-0.8v-0.1h0.6V14c0,0.5-0.2,0.9-0.5,1.2s-0.8,0.4-1.4,0.4c-0.5,0-0.9-0.1-1.2-0.4
			s-0.5-0.7-0.5-1.1c0-0.3,0.1-0.6,0.3-0.9s0.5-0.6,1-0.9c0.1-0.1,0.2-0.2,0.4-0.3c0.9-0.6,1.3-1.1,1.3-1.6c0-0.4-0.1-0.7-0.3-0.9
			s-0.5-0.3-0.9-0.3c-0.4,0-0.8,0.1-1,0.4S197.6,10.3,197.6,10.8L197.6,10.8z M198.3,16.9c0-0.2,0.1-0.3,0.2-0.4s0.3-0.2,0.4-0.2
			s0.3,0.1,0.4,0.2s0.2,0.3,0.2,0.4s-0.1,0.3-0.2,0.4s-0.3,0.2-0.4,0.2s-0.3-0.1-0.4-0.2S198.3,17,198.3,16.9z"/>
	</g>
	<g>
		<rect x="105" y="0" class="st0" width="1" height="28"/>
	</g>
	<g>
		<g>
			<path class="st0" d="M5.7,5.8c0,0.4-0.1,0.9-0.2,1.6c0,0.1,0,0.2,0,0.3l-0.6,3.8H2.4L0,0.3h2.9l0.6,5c0.1,0.4,0.1,0.8,0.1,1.2
				c0,0.4,0,0.7,0.1,1h0.1c0-0.4,0.1-1,0.2-1.8c0-0.1,0-0.1,0-0.2l0.8-5.2h2.1l0.8,5.3c0,0,0,0.1,0,0.2c0,0.6,0.1,1.2,0.1,1.6h0.1
				c0-0.3,0-0.7,0.1-1C7.9,6.1,8,5.7,8,5.2l0.6-5h2.9L9.2,11.5H6.7L6.1,7.7c0-0.1,0-0.2,0-0.3C5.9,6.7,5.9,6.2,5.7,5.8L5.7,5.8z"/>
			<path class="st0" d="M12.1,11.5V0.3h3v11.3h-3V11.5z"/>
			<path class="st0" d="M16.7,11.5V0.3h2.9v4.8l1.8-4.8h3.3l-2.4,5.5l2.8,5.7h-3.5l-2-4.7v4.7H16.7z"/>
			<path class="st0" d="M25.4,11.5V0.3h3v11.3h-3V11.5z"/>
			<path class="st0" d="M41.2,11.5L40.8,7c0-0.3,0-0.7-0.1-1c0-0.3,0-0.7-0.1-1c0,0.3-0.1,0.7-0.1,1c-0.1,0.4-0.1,0.7-0.2,1.2
				l-0.9,4.3h-1.7l-0.9-4.3c-0.1-0.4-0.2-0.8-0.2-1.2c-0.1-0.4-0.1-0.7-0.1-1c0,0.3,0,0.7-0.1,1c0,0.3,0,0.7-0.1,1l-0.4,4.5H33
				l1.4-11.3h3L38,3.1c0,0.1,0,0.2,0.1,0.4c0.2,1.2,0.4,2.1,0.4,2.9l0,0c0-0.5,0.1-1,0.2-1.5C38.9,4.3,39,3.7,39.2,3l0.6-2.7h3
				L44,11.5H41.2z"/>
			<path class="st0" d="M45,6.4V0.3h2.9v6.1c0,0.7,0.1,1.2,0.2,1.5c0.1,0.3,0.3,0.4,0.6,0.4s0.5-0.1,0.6-0.4
				c0.1-0.3,0.2-0.8,0.2-1.5V0.3h2.9v6.1c0,0.8,0,1.5-0.1,2c-0.1,0.5-0.2,1-0.4,1.3c-0.3,0.7-0.8,1.2-1.3,1.6
				c-0.6,0.4-1.2,0.6-1.9,0.6s-1.4-0.2-1.9-0.6c-0.6-0.4-1-0.9-1.3-1.6c-0.2-0.3-0.3-0.8-0.4-1.3C45,7.8,45,7.2,45,6.4z"/>
			<path class="st0" d="M53.4,10.5l0.9-3.2c0.4,0.4,0.8,0.7,1.1,0.9s0.6,0.3,0.9,0.3c0.2,0,0.4-0.1,0.5-0.2C56.9,8.3,57,8.2,57,8
				c0-0.3-0.3-0.6-0.9-0.7c-0.2-0.1-0.3-0.1-0.4-0.1c-0.6-0.2-1.1-0.6-1.4-1.1c-0.3-0.5-0.5-1.2-0.5-2c0-1.2,0.3-2.2,0.9-3
				C55.4,0.4,56.2,0,57.2,0c0.5,0,0.9,0.1,1.4,0.3C59,0.4,59.5,0.7,59.9,1l-0.8,3c-0.3-0.3-0.6-0.5-0.8-0.7
				c-0.3-0.2-0.6-0.2-0.8-0.2s-0.4,0-0.5,0.1s-0.2,0.2-0.2,0.4c0,0.3,0.4,0.6,1.2,0.8c0.1,0,0.2,0.1,0.3,0.1c0.6,0.2,1,0.5,1.3,1.1
				c0.3,0.5,0.5,1.2,0.5,2c0,1.2-0.3,2.3-1,3.1c-0.6,0.8-1.5,1.2-2.5,1.2c-0.5,0-1.1-0.1-1.6-0.3C54.5,11.3,53.9,11,53.4,10.5z"/>
			<path class="st0" d="M61,11.5V0.3h5.4v3.1h-2.6v1.1h2.3v2.9h-2.2v1.2h2.6v3.1h-5.4L61,11.5L61,11.5z"/>
			<path class="st0" d="M67.6,6.4V0.3h2.9v6.1c0,0.7,0.1,1.2,0.2,1.5c0.1,0.3,0.3,0.4,0.6,0.4c0.3,0,0.5-0.1,0.6-0.4
				c0.1-0.3,0.2-0.8,0.2-1.5V0.3H75v6.1c0,0.8,0,1.5-0.1,2c-0.1,0.5-0.2,1-0.4,1.3c-0.3,0.7-0.8,1.2-1.3,1.6
				c-0.6,0.4-1.2,0.6-1.9,0.6c-0.7,0-1.4-0.2-1.9-0.6c-0.6-0.4-1-0.9-1.3-1.6c-0.2-0.3-0.3-0.8-0.4-1.3C67.6,7.8,67.6,7.2,67.6,6.4z
				"/>
			<path class="st0" d="M80.4,11.5V0.3h2.4c0.7,0,1.4,0.1,1.9,0.2s1,0.3,1.3,0.5c0.7,0.5,1.2,1.2,1.6,2s0.6,1.8,0.6,2.9
				s-0.2,2-0.6,2.9c-0.4,0.8-0.9,1.5-1.6,2c-0.3,0.2-0.8,0.4-1.3,0.5s-1.2,0.2-2.1,0.2H80.4z M83.3,8.1c0.7,0,1.1-0.2,1.4-0.5
				C85,7.2,85.2,6.7,85.2,6s-0.1-1.3-0.4-1.6c-0.3-0.4-0.7-0.5-1.3-0.5h-0.1L83.3,8.1L83.3,8.1z"/>
			<path class="st0" d="M97.8,5.9c0,0.8-0.1,1.6-0.3,2.3c-0.2,0.7-0.5,1.3-0.9,1.9c-0.4,0.5-0.9,1-1.4,1.3s-1.1,0.4-1.7,0.4
				s-1.2-0.1-1.7-0.4c-0.5-0.3-1-0.7-1.4-1.3c-0.4-0.5-0.7-1.2-0.9-1.9c-0.2-0.7-0.3-1.5-0.3-2.3s0.1-1.6,0.3-2.3
				c0.2-0.7,0.5-1.3,0.9-1.9s0.9-1,1.4-1.3s1-0.4,1.6-0.4s1.2,0.1,1.7,0.4s1,0.7,1.4,1.3c0.4,0.5,0.7,1.2,0.9,1.9
				C97.7,4.3,97.8,5.1,97.8,5.9z M93.4,8c0.4,0,0.7-0.2,1-0.6c0.2-0.4,0.4-0.9,0.4-1.5s-0.1-1.2-0.4-1.6c-0.2-0.4-0.6-0.6-1-0.6
				s-0.7,0.2-1,0.6C92.1,4.7,92,5.2,92,5.9c0,0.6,0.1,1.2,0.4,1.5C92.7,7.8,93,8,93.4,8z"/>
		</g>
		<g>
			<path class="st0" d="M33.1,27.8V16.4h3.2v11.4H33.1z"/>
			<path class="st0" d="M38,27.8V16.4h3.8c1.3,0,2.3,0.3,2.9,1c0.6,0.7,0.9,1.7,0.9,3.2c0,1.3-0.3,2.3-0.8,2.9
				c-0.6,0.6-1.4,0.9-2.6,0.9h-1v3.4C41.2,27.8,38,27.8,38,27.8z M41.1,19.6v1.9h0.5c0.3,0,0.5-0.1,0.7-0.2c0.2-0.2,0.2-0.4,0.2-0.7
				c0-0.3-0.1-0.5-0.2-0.7c-0.2-0.2-0.4-0.3-0.7-0.3C41.6,19.5,41.1,19.5,41.1,19.6z"/>
			<path class="st0" d="M46.7,27.8V16.4h3.2v11.4H46.7z"/>
			<path class="st0" d="M51.6,27.8V16.4h4c1.2,0,2,0.3,2.6,1s0.9,1.6,0.9,2.9c0,0.8-0.2,1.5-0.5,2s-0.7,0.8-1.2,0.9l2.3,4.6h-3.5
				L54.7,24v3.8H51.6z M54.7,19.3v2.2h0.5c0.3,0,0.5-0.1,0.7-0.3c0.2-0.2,0.2-0.5,0.2-0.8c0-0.4-0.1-0.6-0.2-0.8
				c-0.2-0.2-0.4-0.3-0.7-0.3C55.2,19.3,54.7,19.3,54.7,19.3z"/>
			<path class="st0" d="M59.2,27.8l3.1-11.4h3.5l3.1,11.4h-3.4l-0.3-1.4h-2.4l-0.3,1.4H59.2z M63.4,23.7h1.3l-0.3-1.3
				c-0.1-0.7-0.2-1.2-0.3-1.5c0-0.4-0.1-0.7-0.1-1l0,0c0,0.3,0,0.6-0.1,1c0,0.4-0.1,0.9-0.3,1.5L63.4,23.7z"/>
			<path class="st0" d="M69.4,27.8V16.4h3.1l2.7,6c0-0.3-0.1-0.6-0.1-0.9s0-0.7,0-1.3v-3.8h3v11.4H75l-2.7-5.9
				c0,0.3,0.1,0.5,0.1,0.8s0,0.6,0,1v4.1C72.4,27.8,69.4,27.8,69.4,27.8z"/>
			<path class="st0" d="M85.4,23.7H84V21h4.8c0,0.2,0,0.4,0,0.5s0,0.2,0,0.3c0,0.7,0,1.3-0.1,1.8s-0.2,1-0.4,1.4
				c-0.4,1-1,1.7-1.7,2.2S85.1,28,84.2,28c-0.7,0-1.3-0.1-1.8-0.4c-0.6-0.3-1.1-0.7-1.5-1.3c-0.4-0.6-0.8-1.2-1-1.9
				c-0.2-0.7-0.3-1.5-0.3-2.4s0.1-1.6,0.3-2.4c0.2-0.7,0.6-1.4,1-1.9c0.4-0.6,0.9-1,1.5-1.3s1.2-0.4,1.9-0.4c0.9,0,1.7,0.3,2.4,0.8
				c0.7,0.5,1.3,1.3,1.7,2.2l-2.8,1.4c-0.1-0.3-0.3-0.6-0.5-0.7c-0.2-0.2-0.4-0.2-0.7-0.2c-0.5,0-0.8,0.2-1.1,0.7
				c-0.3,0.5-0.4,1.1-0.4,1.9s0.1,1.4,0.4,1.9c0.3,0.4,0.7,0.7,1.2,0.7c0.3,0,0.6-0.1,0.7-0.2C85.2,24.3,85.3,24,85.4,23.7z"/>
			<path class="st0" d="M88.9,27.8L92,16.4h3.5l3.1,11.4h-3.4l-0.3-1.4h-2.4l-0.3,1.4C92.2,27.8,88.9,27.8,88.9,27.8z M93,23.7h1.3
				L94,22.4c-0.1-0.7-0.2-1.2-0.3-1.5c0-0.4-0.1-0.7-0.1-1h-0.1c0,0.3,0,0.6-0.1,1c0,0.4-0.1,0.9-0.3,1.5L93,23.7z"/>
		</g>
	</g>
</g>
</svg>
